<?xml version="1.0" encoding="utf-8"?>
<!-- Generator: Adobe Illustrator 16.2.0, SVG Export Plug-In . SVG Version: 6.00 Build 0)  -->
<!DOCTYPE svg PUBLIC "-//W3C//DTD SVG 1.1//EN" "http://www.w3.org/Graphics/SVG/1.1/DTD/svg11.dtd">
<svg version="1.1" id="Layer_1" xmlns="http://www.w3.org/2000/svg" xmlns:xlink="http://www.w3.org/1999/xlink" x="0px" y="0px"
	 width="300px" height="200px" viewBox="0 0 300 200" enable-background="new 0 0 300 200" xml:space="preserve">
<g>
	<g enable-background="new    ">
		<path fill="#FFFFFF" d="M250.22,113.272c-0.273-0.684-0.452-1.104-0.452-3.263v-4.171c0-2.465-1.003-3.376-3.283-3.376h-1.731
			v10.807h-5.013V86.728h7.563c5.197,0,7.43,2.011,7.43,6.105v2.084c0,2.729-1.049,4.513-3.281,5.385
			c2.508,0.872,3.325,2.882,3.325,5.651v4.094c0,1.289,0.048,2.236,0.549,3.223h-5.105V113.272z M244.753,90.52v8.154h1.959
			c1.868,0,3.008-0.683,3.008-2.807v-2.616c0-1.896-0.776-2.732-2.554-2.732H244.753z"/>
		<path fill="#FFFFFF" d="M257.653,93.099c0-4.247,2.688-6.673,7.61-6.673c4.923,0,7.612,2.428,7.612,6.673v13.803
			c0,4.248-2.689,6.673-7.612,6.673c-4.922,0-7.61-2.425-7.61-6.673V93.099z M262.664,107.166c0,1.895,1.003,2.616,2.6,2.616
			c1.596,0,2.6-0.722,2.6-2.616V92.834c0-1.896-1.004-2.616-2.6-2.616c-1.597,0-2.6,0.72-2.6,2.616V107.166z"/>
		<path fill="#FFFFFF" d="M286.594,113.272c-0.274-0.684-0.458-1.104-0.458-3.263v-4.171c0-2.465-1-3.376-3.28-3.376h-1.729v10.807
			h-5.014V86.728h7.566c5.193,0,7.428,2.011,7.428,6.105v2.084c0,2.729-1.047,4.513-3.28,5.385c2.507,0.872,3.324,2.882,3.324,5.651
			v4.094c0,1.289,0.045,2.236,0.549,3.223h-5.105V113.272z M281.123,90.52v8.154h1.961c1.866,0,3.006-0.683,3.006-2.807v-2.616
			c0-1.896-0.777-2.732-2.554-2.732H281.123z"/>
	</g>
	<g enable-background="new    ">
		<path fill="#FFFFFF" d="M211.046,139.048c-0.186-0.559-0.31-0.899-0.31-2.669v-3.411c0-2.019-0.683-2.763-2.234-2.763h-1.179
			v8.843h-3.413v-21.723h5.151c3.537,0,5.057,1.646,5.057,4.999v1.704c0,2.233-0.712,3.692-2.232,4.406
			c1.705,0.715,2.264,2.36,2.264,4.626v3.35c0,1.056,0.03,1.829,0.372,2.638H211.046L211.046,139.048z M207.321,120.431v6.671h1.333
			c1.271,0,2.047-0.558,2.047-2.296v-2.141c0-1.554-0.525-2.234-1.736-2.234H207.321z"/>
		<path fill="#FFFFFF" d="M216.101,122.54c0-3.476,1.834-5.462,5.185-5.462s5.183,1.986,5.183,5.462v11.297
			c0,3.475-1.832,5.461-5.183,5.461s-5.185-1.986-5.185-5.461V122.54z M219.516,134.055c0,1.551,0.683,2.141,1.77,2.141
			c1.085,0,1.77-0.59,1.77-2.141v-11.73c0-1.553-0.685-2.144-1.77-2.144c-1.087,0-1.77,0.591-1.77,2.144V134.055z"/>
		<path fill="#FFFFFF" d="M238.881,122.324v0.773c0,2.236-0.683,3.664-2.203,4.376c1.829,0.714,2.544,2.359,2.544,4.656v1.768
			c0,3.351-1.77,5.15-5.182,5.15h-5.371v-21.723h5.153C237.357,117.325,238.881,118.972,238.881,122.324z M232.084,120.431v5.741
			h1.334c1.271,0,2.048-0.559,2.048-2.298v-1.209c0-1.554-0.527-2.234-1.738-2.234H232.084z M232.084,129.274v6.671h1.956
			c1.146,0,1.769-0.526,1.769-2.141v-1.893c0-2.016-0.652-2.635-2.205-2.635h-1.52V129.274z"/>
		<path fill="#FFFFFF" d="M240.989,122.54c0-3.476,1.83-5.462,5.183-5.462c3.352,0,5.183,1.986,5.183,5.462v11.297
			c0,3.475-1.831,5.461-5.183,5.461c-3.353,0-5.183-1.986-5.183-5.461V122.54z M244.402,134.055c0,1.551,0.683,2.141,1.77,2.141
			s1.768-0.59,1.768-2.141v-11.73c0-1.553-0.681-2.144-1.768-2.144s-1.77,0.591-1.77,2.144V134.055z"/>
		<path fill="#FFFFFF" d="M252.563,117.325h10.551v3.105h-3.569v18.62h-3.413v-18.62h-3.568V117.325L252.563,117.325z"/>
		<path fill="#FFFFFF" d="M264.604,117.325h3.413v21.726h-3.413V117.325z"/>
		<path fill="#FFFFFF" d="M280.396,130.949v2.885c0,3.478-1.736,5.464-5.089,5.464c-3.352,0-5.09-1.986-5.09-5.464V122.54
			c0-3.476,1.738-5.462,5.09-5.462c3.353,0,5.089,1.986,5.089,5.462v2.107h-3.229v-2.323c0-1.553-0.681-2.144-1.768-2.144
			s-1.768,0.591-1.768,2.144v11.73c0,1.551,0.681,2.108,1.768,2.108s1.768-0.558,1.768-2.108v-3.105H280.396L280.396,130.949z"/>
		<path fill="#FFFFFF" d="M287.065,117.078c3.322,0,5.029,1.986,5.029,5.462v0.683h-3.229v-0.898c0-1.55-0.622-2.141-1.707-2.141
			c-1.084,0-1.706,0.591-1.706,2.141c0,4.47,6.673,5.308,6.673,11.513c0,3.475-1.738,5.461-5.088,5.461
			c-3.354,0-5.089-1.986-5.089-5.461v-1.335h3.225v1.553c0,1.553,0.683,2.111,1.768,2.111c1.088,0,1.771-0.559,1.771-2.111
			c0-4.47-6.675-5.307-6.675-11.513C282.038,119.064,283.746,117.078,287.065,117.078z"/>
	</g>
	<g enable-background="new    ">
		<path fill="#FFFFFF" d="M169.547,100.564l4.941-32.746h10.08v46.119h-6.852V80.862l-5.007,33.073h-6.852l-5.403-32.611v32.611
			h-6.324V67.819h10.08L169.547,100.564z"/>
		<path fill="#FFFFFF" d="M211.318,79.216v5.995c0,7.379-3.56,11.398-10.807,11.398h-3.426v17.326h-7.245V67.819h10.671
			C207.761,67.819,211.318,71.836,211.318,79.216z M197.086,74.407v15.616h3.426c2.306,0,3.559-1.056,3.559-4.35v-6.917
			c0-3.293-1.253-4.349-3.559-4.349H197.086z"/>
		<path fill="#FFFFFF" d="M237.277,113.936h-7.313l-1.254-8.368h-8.893l-1.253,8.368h-6.654l7.378-46.118h10.607L237.277,113.936z
			 M220.743,99.311h6.981l-3.491-23.322L220.743,99.311z"/>
	</g>
</g>
<g>
	<g>
		<path fill-rule="evenodd" clip-rule="evenodd" fill="none" d="M82.661,168.348c-24.89,0-49.779,0.001-74.669-0.017
			c-0.149,0-0.43-0.261-0.43-0.4c-0.019-44.23-0.019-88.462,0-132.693c0-0.139,0.281-0.399,0.43-0.399
			c49.779-0.017,99.558-0.017,149.338,0c0.148,0,0.43,0.26,0.43,0.399c0.02,44.231,0.02,88.462,0,132.693c0,0.14-0.281,0.4-0.43,0.4
			C132.44,168.349,107.55,168.348,82.661,168.348z M37.176,135.529c4.283,0.075,7.253,2.881,6.949,6.575
			c-0.113,1.389-0.733,2.805-1.417,4.071c-0.919,1.703-0.65,2.978,0.869,4.205c1.6,1.294,3.055,1.046,4.533-0.119
			c2.58-2.035,5.42-3.129,8.681-1.549c3.228,1.563,4.128,4.279,3.516,7.413c-0.49,2.504,0.456,4.27,3.093,4.373
			c1.235,0.049,2.891-1.203,3.743-2.283c2.13-2.702,4.76-4.103,7.717-3.563c3.154,0.577,5.024,2.929,5.95,6.461
			c0.276,1.057,1.88,2.208,3.124,2.56c1.864,0.524,3.214-0.528,3.606-2.4c0.867-4.134,2.78-6.291,6.021-6.805
			c3.147-0.502,5.805,0.871,7.897,4.203c1.254,1.995,3.133,2.159,4.825,1.025c0.926-0.622,1.675-2.249,1.535-3.313
			c-0.47-3.561,0.436-6.397,3.077-7.931c2.679-1.556,5.585-1.252,8.764,1.062c1.542,1.122,2.952,1.56,4.686,0.333
			c1.955-1.383,1.824-2.858,0.729-4.674c-2.566-4.252-1.25-8.669,3.114-9.927c1.596-0.462,3.645-0.438,5.212,0.078
			c2.654,0.877,4.032,0.161,5.18-2.025c1.114-2.121-0.592-2.94-1.808-4.042c-2.24-2.025-3.406-4.396-2.346-7.28
			c1.042-2.838,3.418-4.197,6.553-4.234c2.388-0.029,4.088-0.532,4.428-3.072c0.256-1.904-0.594-2.874-2.464-3.514
			c-3.177-1.089-5.466-3.001-5.464-6.42c0.003-3.515,2.424-5.337,5.664-6.398c2.688-0.882,2.294-2.788,1.547-4.445
			c-0.375-0.833-1.798-1.697-2.808-1.765c-3.417-0.23-6.392-1.008-7.883-4.143c-1.286-2.701-0.295-5.445,2.84-7.98
			c1.779-1.438,1.806-3.096,0.395-4.395c-0.869-0.801-2.737-1.3-3.934-1.042c-3.265,0.707-6.291,0.983-8.749-1.542
			c-2.216-2.277-2.32-5.018-0.348-8.226c1.124-1.831,0.878-3.482-1.056-4.282c-1.167-0.482-2.892-0.146-4.253,0.2
			c-1.971,0.501-3.809,1.834-5.76,1.943c-4.481,0.252-7.309-3.701-6.295-8.547c0.519-2.482-1.351-3.498-3.489-3.642
			c-0.955-0.064-2.321,0.859-2.948,1.691c-1.624,2.158-3.353,3.99-6.408,4.146c-3.911,0.201-6.363-2.104-7.551-6.539
			c-0.257-0.959-1.608-2.055-2.689-2.347c-1.821-0.493-3.208,0.32-3.947,2.183c-0.757,1.909-1.462,4.143-2.983,5.425
			c-3.522,2.972-7.878,1.667-10.948-2.84c-1.111-1.631-2.795-2.076-4.339-0.965c-0.979,0.705-1.968,2.235-1.839,3.276
			c0.445,3.607-0.476,6.411-3.212,7.915c-2.709,1.489-5.945,1.049-8.954-1.295c-1.762-1.374-3.55-1.142-4.702,0.401
			c-0.674,0.902-0.932,2.657-0.441,3.618c1.752,3.431,1.898,6.152-0.113,8.443c-1.972,2.246-4.929,2.852-8.793,1.634
			c-2.217-0.699-3.903-0.014-4.403,1.876c-0.292,1.103,0.257,2.877,1.138,3.678c2.706,2.465,3.868,4.946,2.781,7.821
			c-1.14,3.016-3.731,4.201-6.986,4.258c-2.321,0.04-3.925,0.691-4.287,3.09c-0.353,2.335,1.463,2.771,3.119,3.635
			c1.534,0.8,3.226,1.823,4.083,3.167c2.445,3.835,0.212,7.515-5.148,9.721c-0.976,0.4-1.899,2.211-1.768,3.254
			c0.126,0.995,1.485,2.221,2.613,2.661c1.731,0.676,3.964,0.366,5.567,1.18c4.734,2.406,4.454,7.42-0.271,11.46
			c-0.688,0.59-1.227,2.018-0.934,2.744c0.43,1.064,1.614,2.532,2.583,2.604C33.493,136.515,35.491,135.824,37.176,135.529z"/>
		<path fill-rule="evenodd" clip-rule="evenodd" fill="#FFFFFF" d="M36.619,134.775c-1.691,0.267-3.702,0.925-5.624,0.748
			c-0.967-0.088-2.124-1.573-2.533-2.646c-0.279-0.731,0.286-2.15,0.985-2.728c4.799-3.965,5.174-8.971,0.486-11.453
			c-1.587-0.841-3.826-0.568-5.543-1.271c-1.12-0.459-2.456-1.706-2.563-2.703c-0.112-1.045,0.846-2.841,1.828-3.227
			c5.402-2.118,7.703-5.759,5.33-9.635c-0.831-1.358-2.503-2.407-4.021-3.232c-1.639-0.892-3.447-1.355-3.05-3.687
			c0.407-2.391,2.022-3.015,4.344-3.018c3.256-0.004,5.868-1.148,7.065-4.145c1.141-2.857,0.025-5.356-2.634-7.865
			c-0.865-0.816-1.38-2.599-1.068-3.696c0.536-1.882,2.234-2.54,4.438-1.805c3.84,1.28,6.808,0.722,8.822-1.492
			c2.054-2.258,1.959-4.981,0.272-8.44c-0.472-0.968-0.182-2.718,0.509-3.61c1.181-1.524,2.973-1.726,4.709-0.325
			c2.964,2.393,6.191,2.885,8.928,1.44c2.765-1.46,3.738-4.247,3.361-7.861c-0.109-1.043,0.908-2.557,1.9-3.246
			c1.564-1.086,3.239-0.614,4.32,1.035c2.984,4.556,7.314,5.932,10.893,3.018c1.545-1.258,2.292-3.479,3.085-5.376
			c0.773-1.851,2.175-2.641,3.988-2.119c1.074,0.31,2.405,1.428,2.645,2.39c1.104,4.454,3.512,6.797,7.427,6.661
			c3.057-0.107,4.82-1.911,6.485-4.042c0.643-0.822,2.025-1.723,2.979-1.643c2.134,0.179,3.985,1.225,3.419,3.698
			c-1.105,4.829,1.647,8.828,6.134,8.648c1.952-0.078,3.815-1.381,5.795-1.851c1.369-0.324,3.1-0.632,4.256-0.13
			c1.919,0.831,2.134,2.486,0.976,4.298c-2.031,3.176-1.979,5.918,0.193,8.23c2.41,2.564,5.442,2.337,8.719,1.683
			c1.2-0.239,3.059,0.29,3.914,1.104c1.386,1.322,1.328,2.979-0.478,4.389c-3.183,2.483-4.224,5.212-2.99,7.933
			c1.432,3.158,4.393,3.985,7.804,4.27c1.009,0.083,2.414,0.972,2.773,1.81c0.716,1.668,1.075,3.581-1.629,4.419
			c-3.26,1.008-5.715,2.792-5.784,6.305c-0.067,3.421,2.185,5.368,5.341,6.508c1.858,0.671,2.689,1.653,2.398,3.555
			c-0.389,2.533-2.098,3.009-4.485,2.998c-3.135-0.013-5.537,1.308-6.632,4.129c-1.113,2.865,0.008,5.255,2.209,7.317
			c1.194,1.12,2.884,1.968,1.731,4.07c-1.189,2.167-2.581,2.86-5.218,1.941c-1.557-0.544-3.605-0.598-5.21-0.164
			c-4.387,1.188-5.786,5.583-3.299,9.878c1.06,1.83,1.164,3.309-0.817,4.659c-1.757,1.198-3.159,0.738-4.679-0.408
			c-3.134-2.364-6.035-2.717-8.743-1.203c-2.669,1.49-3.628,4.313-3.226,7.881c0.121,1.063-0.66,2.679-1.597,3.285
			c-1.713,1.106-3.588,0.912-4.804-1.103c-2.029-3.365-4.661-4.781-7.816-4.332c-3.25,0.463-5.204,2.589-6.148,6.707
			c-0.428,1.865-1.797,2.896-3.651,2.341c-1.237-0.369-2.818-1.548-3.075-2.608c-0.86-3.548-2.686-5.928-5.828-6.556
			c-2.947-0.589-5.602,0.771-7.783,3.438c-0.873,1.064-2.552,2.291-3.785,2.223c-2.635-0.146-3.548-1.927-3.011-4.425
			c0.672-3.122-0.177-5.853-3.375-7.467c-3.23-1.633-6.091-0.585-8.709,1.406c-1.5,1.142-2.959,1.365-4.535,0.048
			c-1.495-1.252-1.74-2.531-0.788-4.221c0.707-1.254,1.353-2.66,1.494-4.046C43.817,137.772,40.899,134.919,36.619,134.775z
			 M84.047,79.789c-15.216-0.257-27.835,11.059-28.132,25.229c-0.3,14.29,11.836,25.967,27.274,26.24
			c15.275,0.271,28.029-11.068,28.307-25.168C111.778,91.723,99.598,80.052,84.047,79.789z M49.708,86.771
			c4.634-0.325,7.307-3.003,7.016-7.028c-0.249-3.442-4.07-6.355-7.984-6.087c-3.616,0.248-6.472,3.376-6.191,6.782
			C42.846,84.037,46.214,87.016,49.708,86.771z M40.412,97.115c-4.18-0.054-7.357,2.568-7.42,6.124
			c-0.068,3.759,3.101,6.741,7.207,6.786c3.825,0.042,7.107-2.886,7.159-6.389C47.411,100.046,44.344,97.165,40.412,97.115z
			 M40.097,127.656c-0.075,3.53,2.99,6.458,6.846,6.536c4.04,0.084,7.291-2.845,7.37-6.639c0.075-3.59-2.817-6.394-6.664-6.459
			C43.667,121.026,40.173,124.063,40.097,127.656z M68.458,136.631c-3.991-0.063-7.033,2.885-7.117,6.897
			c-0.07,3.373,2.936,6.289,6.558,6.355c3.936,0.072,7.377-2.8,7.458-6.224C75.449,139.75,72.451,136.695,68.458,136.631z
			 M64.987,66.336c-0.066,3.524,3.287,6.742,7.087,6.799c3.776,0.056,6.785-2.729,6.869-6.354c0.087-3.848-2.975-6.935-6.939-6.995
			C68.263,59.73,65.054,62.725,64.987,66.336z M126.998,113.438c4.475-0.014,7.367-2.546,7.352-6.44
			c-0.014-3.493-3.367-6.562-7.127-6.522c-3.796,0.041-7.212,3.398-7.2,7.078C120.034,110.732,123.252,113.447,126.998,113.438z
			 M95.448,151.009c3.989-0.004,6.969-3.007,6.963-7.02c-0.004-3.021-3.725-6.229-7.198-6.206c-3.969,0.025-6.833,2.704-6.826,6.383
			C88.393,147.964,91.538,151.011,95.448,151.009z M98.571,74.219c4.045,0.07,7.176-2.907,7.265-6.908
			c0.076-3.389-2.939-6.27-6.635-6.339c-4.058-0.076-7.183,2.792-7.256,6.656C91.877,71.2,94.847,74.154,98.571,74.219z
			 M110.71,130.288c-0.066,3.474,3.445,6.741,7.302,6.793c3.788,0.053,6.827-2.769,6.898-6.401c0.073-3.78-2.9-6.488-7.207-6.563
			C113.758,124.047,110.78,126.676,110.71,130.288z M119.695,89.554c3.746,0.063,7.299-3,7.354-6.336
			c0.061-3.763-2.904-6.586-6.996-6.66c-3.841-0.07-7.081,3.071-7.162,6.947C112.822,86.872,115.764,89.489,119.695,89.554z"/>
		<path fill-rule="evenodd" clip-rule="evenodd" fill="none" d="M83.563,79.784c15.554,0.012,27.952,11.483,27.939,25.853
			c-0.012,14.102-12.551,25.647-27.83,25.623c-15.439-0.024-27.793-11.502-27.763-25.796C55.94,91.292,68.344,79.773,83.563,79.784z
			"/>
		<path fill-rule="evenodd" clip-rule="evenodd" fill="none" d="M49.36,87.321c-3.489,0.301-6.913-2.623-7.277-6.215
			c-0.345-3.402,2.452-6.576,6.062-6.882c3.908-0.332,7.784,2.52,8.097,5.958C56.61,84.201,53.987,86.922,49.36,87.321z"/>
		<path fill-rule="evenodd" clip-rule="evenodd" fill="none" d="M40.26,97.814c3.932-0.014,7.053,2.816,7.067,6.406
			c0.013,3.503-3.213,6.483-7.039,6.504c-4.106,0.022-7.33-2.91-7.333-6.668C32.952,100.501,36.079,97.827,40.26,97.814z"/>
		<path fill-rule="evenodd" clip-rule="evenodd" fill="none" d="M40.52,128.355c0.009-3.594,3.444-6.687,7.426-6.683
			c3.848,0.004,6.793,2.76,6.785,6.349c-0.008,3.796-3.204,6.776-7.245,6.759C43.631,134.764,40.512,131.887,40.52,128.355z"/>
		<path fill-rule="evenodd" clip-rule="evenodd" fill="none" d="M69.046,136.87c3.993,0,7.048,3.006,7.029,6.916
			c-0.017,3.425-3.404,6.353-7.34,6.342c-3.623-0.008-6.683-2.871-6.675-6.247C62.068,139.868,65.054,136.87,69.046,136.87z"/>
		<path fill-rule="evenodd" clip-rule="evenodd" fill="none" d="M64.252,66.642c0-3.612,3.151-6.658,6.892-6.662
			c3.965-0.004,7.084,3.033,7.069,6.881c-0.014,3.627-2.971,6.46-6.748,6.464C67.667,73.33,64.252,70.167,64.252,66.642z"/>
		<path fill-rule="evenodd" clip-rule="evenodd" fill="none" d="M127.14,112.732c-3.744,0.071-7.013-2.591-7.084-5.771
			c-0.082-3.679,3.27-7.09,7.065-7.193c3.76-0.1,7.169,2.913,7.249,6.407C134.457,110.066,131.614,112.647,127.14,112.732z"/>
		<path fill-rule="evenodd" clip-rule="evenodd" fill="none" d="M96.302,150.808c-3.909,0.066-7.111-2.929-7.189-6.727
			c-0.075-3.679,2.737-6.402,6.705-6.493c3.472-0.079,7.252,3.069,7.313,6.089C103.212,147.689,100.291,150.74,96.302,150.808z"/>
		<path fill-rule="evenodd" clip-rule="evenodd" fill="none" d="M97.979,73.979c-3.724-0.004-6.749-2.91-6.749-6.483
			c0-3.865,3.071-6.782,7.13-6.771c3.696,0.009,6.765,2.84,6.752,6.23C105.1,70.957,102.025,73.984,97.979,73.979z"/>
		<path fill-rule="evenodd" clip-rule="evenodd" fill="none" d="M111.172,129.843c0.001-3.612,2.929-6.287,6.876-6.283
			c4.307,0.005,7.332,2.665,7.328,6.446c-0.003,3.633-2.988,6.503-6.776,6.512C114.743,136.528,111.171,133.317,111.172,129.843z"/>
		<path fill-rule="evenodd" clip-rule="evenodd" fill="none" d="M119.39,88.971c-3.932-0.002-6.923-2.571-6.916-5.939
			c0.008-3.875,3.188-7.069,7.03-7.061c4.092,0.008,7.11,2.783,7.119,6.545C126.632,85.854,123.135,88.973,119.39,88.971z"/>
	</g>
	<g>
		<path fill="#54A6DC" d="M84.694,73.291c1.122-2.969,0.661-5.09-0.784-5.84c-2.273-1.157-6.952,1.051-11.736,8.638
			c2.123,1.732,5.511,3,0.595,11.56c4.891-6.567,10.109-10.719,11.403-13.204C84.375,74.056,84.55,73.673,84.694,73.291z"/>
		<path fill="#1B3F73" stroke="#010101" stroke-miterlimit="10" d="M95.718,82.271c-0.124-6.296,0.162-30.079-13.503-30.3
			c-21.871,2.539-8.527,17.928-21.453,29.503c3.533-1.288,10.329-4.21,11.395-5.395c4.796-7.605,9.486-9.805,11.753-8.628
			c1.445,0.75,1.906,2.871,0.784,5.84c-0.144,0.382-0.319,0.765-0.522,1.153c-1.294,2.485-6.513,6.637-11.403,13.204
			c-0.023,0.028-0.047,0.056-0.069,0.084c-15.613,15.091-6.437,47.898,1.111,61.287c0.036,0.064,0.072,0.126,0.107,0.188
			c1.107,1.94,2.176,3.464,3.123,4.439c0.007,0.008,0.015,0.016,0.021,0.023c0.007,0.008,0.016,0.017,0.023,0.025
			c6.069,6.786,34.352,7.776,48.926-0.252C80.961,143.873,111.897,118.861,95.718,82.271z"/>
	</g>
</g>
</svg>
