<?xml version="1.0" encoding="utf-8"?>
<!-- Generator: Adobe Illustrator 16.0.0, SVG Export Plug-In . SVG Version: 6.00 Build 0)  -->
<!DOCTYPE svg PUBLIC "-//W3C//DTD SVG 1.1//EN" "http://www.w3.org/Graphics/SVG/1.1/DTD/svg11.dtd">
<svg version="1.1" xmlns="http://www.w3.org/2000/svg" xmlns:xlink="http://www.w3.org/1999/xlink" x="0px" y="0px" width="350px"
	 height="130px" viewBox="0 0 350 130" enable-background="new 0 0 350 130" xml:space="preserve">
<g id="Layer_2">
	<linearGradient id="SVGID_1_" gradientUnits="userSpaceOnUse" x1="0.5" y1="65" x2="350.5" y2="65">
		<stop  offset="0.2486" style="stop-color:#000000"/>
		<stop  offset="0.36" style="stop-color:#020202;stop-opacity:0.721"/>
		<stop  offset="0.4357" style="stop-color:#0A0A0A;stop-opacity:0.5833"/>
		<stop  offset="0.5234" style="stop-color:#171717;stop-opacity:0.4766"/>
		<stop  offset="0.6143" style="stop-color:#2A2A2A;stop-opacity:0.3857"/>
		<stop  offset="0.695" style="stop-color:#424242;stop-opacity:0.305"/>
		<stop  offset="0.7686" style="stop-color:#606060;stop-opacity:0.2314"/>
		<stop  offset="0.8367" style="stop-color:#838383;stop-opacity:0.1633"/>
		<stop  offset="0.9006" style="stop-color:#ADADAD;stop-opacity:0.0994"/>
		<stop  offset="0.9588" style="stop-color:#DADADA;stop-opacity:0.0412"/>
		<stop  offset="1" style="stop-color:#FFFFFF;stop-opacity:0"/>
	</linearGradient>
	<rect fill="url(#SVGID_1_)" width="350" height="130"/>
</g>
<g id="Layer_1">
	<g enable-background="new    ">
		<path fill="#FFFFFF" d="M188.521,33.562c-0.184-0.457-0.305-0.738-0.305-2.189V28.57c0-1.654-0.674-2.266-2.205-2.266h-1.162
			v7.258h-3.367V15.736h5.08c3.49,0,4.99,1.35,4.99,4.1v1.4c0,1.834-0.705,3.031-2.205,3.617c1.685,0.584,2.234,1.935,2.234,3.793
			v2.75c0,0.867,0.031,1.502,0.368,2.166H188.521L188.521,33.562z M184.849,18.283v5.476h1.315c1.255,0,2.021-0.458,2.021-1.885
			v-1.757c0-1.273-0.521-1.834-1.715-1.834H184.849z"/>
		<path fill="#FFFFFF" d="M193.513,20.016c0-2.854,1.806-4.482,5.111-4.482c3.307,0,5.112,1.63,5.112,4.482v9.27
			c0,2.852-1.806,4.482-5.112,4.482c-3.306,0-5.111-1.631-5.111-4.482V20.016z M196.879,29.463c0,1.273,0.673,1.758,1.745,1.758
			s1.745-0.484,1.745-1.758v-9.626c0-1.272-0.673-1.757-1.745-1.757s-1.745,0.484-1.745,1.757V29.463z"/>
		<path fill="#FFFFFF" d="M212.95,33.562c-0.184-0.457-0.307-0.738-0.307-2.189V28.57c0-1.654-0.672-2.266-2.203-2.266h-1.163v7.258
			h-3.367V15.736h5.082c3.489,0,4.989,1.35,4.989,4.1v1.4c0,1.834-0.704,3.031-2.204,3.617c1.684,0.584,2.233,1.935,2.233,3.793
			v2.75c0,0.867,0.031,1.502,0.368,2.166H212.95L212.95,33.562z M209.276,18.283v5.476h1.316c1.254,0,2.02-0.458,2.02-1.885v-1.757
			c0-1.273-0.521-1.834-1.715-1.834H209.276z"/>
	</g>
	<g enable-background="new    ">
		<path fill="#FFFFFF" d="M127.773,52.277c-0.125-0.375-0.208-0.604-0.208-1.793v-2.291c0-1.355-0.458-1.855-1.501-1.855h-0.792
			v5.939h-2.292v-14.59h3.46c2.376,0,3.397,1.105,3.397,3.356v1.146c0,1.5-0.479,2.48-1.502,2.959
			c1.146,0.479,1.521,1.586,1.521,3.106v2.251c0,0.708,0.021,1.229,0.25,1.771H127.773L127.773,52.277z M125.271,39.773v4.48h0.896
			c0.854,0,1.375-0.376,1.375-1.543v-1.438c0-1.043-0.354-1.5-1.168-1.5H125.271z"/>
		<path fill="#FFFFFF" d="M131.17,41.189c0-2.334,1.229-3.668,3.48-3.668s3.481,1.334,3.481,3.668v7.588
			c0,2.334-1.23,3.668-3.481,3.668s-3.48-1.334-3.48-3.668V41.189z M133.463,48.923c0,1.042,0.457,1.438,1.188,1.438
			s1.188-0.396,1.188-1.438v-7.879c0-1.042-0.457-1.438-1.188-1.438s-1.188,0.396-1.188,1.438V48.923z"/>
		<path fill="#FFFFFF" d="M146.469,41.044v0.521c0,1.502-0.458,2.461-1.48,2.939c1.229,0.479,1.709,1.584,1.709,3.126v1.188
			c0,2.25-1.188,3.459-3.48,3.459h-3.606v-14.59h3.46C145.447,37.688,146.469,38.793,146.469,41.044z M141.904,39.773v3.854h0.896
			c0.854,0,1.375-0.375,1.375-1.542v-0.812c0-1.043-0.354-1.5-1.167-1.5H141.904z M141.904,45.713v4.48h1.312
			c0.771,0,1.188-0.354,1.188-1.438v-1.271c0-1.354-0.438-1.771-1.479-1.771L141.904,45.713L141.904,45.713z"/>
		<path fill="#FFFFFF" d="M147.885,41.189c0-2.334,1.23-3.668,3.48-3.668c2.252,0,3.481,1.334,3.481,3.668v7.588
			c0,2.334-1.229,3.668-3.481,3.668c-2.25,0-3.48-1.334-3.48-3.668V41.189z M150.178,48.923c0,1.042,0.458,1.438,1.188,1.438
			c0.73,0,1.188-0.396,1.188-1.438v-7.879c0-1.042-0.458-1.438-1.188-1.438c-0.729,0-1.188,0.396-1.188,1.438V48.923z"/>
		<path fill="#FFFFFF" d="M155.658,37.688h7.086v2.086h-2.396v12.506h-2.292V39.773h-2.397V37.688z"/>
		<path fill="#FFFFFF" d="M163.744,37.688h2.293v14.592h-2.293V37.688z"/>
		<path fill="#FFFFFF" d="M174.353,46.838v1.938c0,2.336-1.167,3.67-3.418,3.67s-3.418-1.334-3.418-3.67v-7.586
			c0-2.334,1.167-3.668,3.418-3.668s3.418,1.334,3.418,3.668v1.416h-2.168v-1.562c0-1.042-0.458-1.438-1.188-1.438
			c-0.729,0-1.188,0.396-1.188,1.438v7.879c0,1.042,0.458,1.417,1.188,1.417c0.73,0,1.188-0.375,1.188-1.417v-2.085H174.353z"/>
		<path fill="#FFFFFF" d="M178.832,37.521c2.23,0,3.377,1.334,3.377,3.668v0.459h-2.168v-0.604c0-1.042-0.416-1.438-1.146-1.438
			s-1.146,0.396-1.146,1.438c0,3.001,4.48,3.564,4.48,7.732c0,2.334-1.167,3.668-3.418,3.668s-3.418-1.334-3.418-3.668v-0.896h2.167
			v1.043c0,1.042,0.458,1.417,1.188,1.417c0.729,0,1.188-0.375,1.188-1.417c0-3.002-4.48-3.564-4.48-7.732
			C175.457,38.855,176.603,37.521,178.832,37.521z"/>
	</g>
	<g enable-background="new    ">
		<path fill="#FFFFFF" d="M132.985,24.426l3.319-21.993h6.77v30.976h-4.602V11.193l-3.363,22.214h-4.602l-3.629-21.903v21.903
			h-4.248V2.433h6.771L132.985,24.426z"/>
		<path fill="#FFFFFF" d="M161.041,10.088v4.026c0,4.956-2.391,7.655-7.258,7.655h-2.301v11.638h-4.867V2.433h7.168
			C158.651,2.433,161.041,5.131,161.041,10.088z M151.482,6.857v10.488h2.301c1.549,0,2.391-0.709,2.391-2.922V9.778
			c0-2.212-0.842-2.921-2.391-2.921H151.482z"/>
		<path fill="#FFFFFF" d="M178.477,33.407h-4.912l-0.841-5.62h-5.974l-0.842,5.62h-4.469l4.956-30.976h7.124L178.477,33.407z
			 M167.371,23.584h4.689L169.715,7.92L167.371,23.584z"/>
	</g>
	<g>
		<path fill-rule="evenodd" clip-rule="evenodd" fill="none" d="M59.151,125.848c-22.975,0-45.95,0.002-68.925-0.017
			c-0.139,0-0.397-0.268-0.397-0.41c-0.018-45.419-0.018-90.837,0-136.256c0-0.143,0.258-0.41,0.397-0.41
			c45.95-0.019,91.9-0.019,137.85,0c0.139,0,0.397,0.267,0.397,0.41c0.018,45.419,0.018,90.837,0,136.256
			c0,0.142-0.258,0.41-0.397,0.41C105.102,125.85,82.126,125.848,59.151,125.848z M17.165,92.148
			c3.954,0.076,6.696,2.958,6.416,6.752c-0.106,1.424-0.678,2.879-1.309,4.181c-0.848,1.748-0.6,3.059,0.801,4.318
			c1.478,1.328,2.82,1.073,4.185-0.124c2.381-2.087,5.002-3.211,8.013-1.59c2.98,1.605,3.812,4.394,3.245,7.611
			c-0.452,2.572,0.42,4.386,2.855,4.491c1.139,0.051,2.668-1.235,3.455-2.345c1.967-2.773,4.394-4.213,7.124-3.658
			c2.912,0.593,4.639,3.007,5.492,6.635c0.256,1.085,1.736,2.268,2.884,2.628c1.721,0.537,2.967-0.544,3.33-2.466
			c0.8-4.244,2.566-6.458,5.558-6.987c2.905-0.515,5.357,0.896,7.288,4.315c1.158,2.051,2.893,2.22,4.454,1.054
			c0.854-0.639,1.547-2.308,1.417-3.399c-0.434-3.658,0.403-6.57,2.841-8.146c2.472-1.598,5.155-1.285,8.089,1.091
			c1.423,1.151,2.725,1.602,4.326,0.342c1.804-1.419,1.683-2.937,0.673-4.799c-2.369-4.366-1.155-8.901,2.874-10.195
			c1.473-0.473,3.365-0.449,4.811,0.082c2.45,0.9,3.722,0.165,4.783-2.08c1.028-2.178-0.546-3.02-1.669-4.15
			c-2.067-2.08-3.145-4.515-2.166-7.477c0.962-2.913,3.156-4.31,6.049-4.348c2.205-0.03,3.774-0.547,4.087-3.152
			c0.236-1.96-0.549-2.953-2.275-3.61c-2.932-1.117-5.045-3.079-5.042-6.594c0.002-3.607,2.238-5.479,5.228-6.568
			c2.481-0.905,2.118-2.863,1.427-4.564c-0.347-0.854-1.659-1.743-2.591-1.813c-3.153-0.236-5.899-1.034-7.276-4.253
			c-1.186-2.773-0.273-5.592,2.622-8.194c1.642-1.477,1.667-3.179,0.364-4.514c-0.802-0.822-2.528-1.335-3.63-1.069
			c-3.014,0.726-5.809,1.01-8.077-1.583c-2.046-2.338-2.141-5.153-0.322-8.447c1.039-1.879,0.811-3.576-0.975-4.396
			c-1.077-0.495-2.669-0.151-3.927,0.205c-1.819,0.514-3.516,1.883-5.316,1.996c-4.137,0.259-6.748-3.801-5.812-8.778
			c0.479-2.548-1.248-3.592-3.22-3.74c-0.882-0.065-2.144,0.882-2.721,1.736c-1.5,2.215-3.096,4.097-5.916,4.257
			c-3.61,0.206-5.874-2.161-6.971-6.714c-0.237-0.985-1.485-2.109-2.482-2.411c-1.682-0.505-2.962,0.329-3.644,2.242
			c-0.7,1.961-1.351,4.254-2.754,5.571c-3.251,3.051-7.272,1.711-10.106-2.918c-1.025-1.675-2.581-2.131-4.005-0.99
			c-0.903,0.725-1.816,2.296-1.697,3.365c0.41,3.704-0.439,6.583-2.966,8.126c-2.5,1.53-5.488,1.079-8.264-1.329
			c-1.627-1.411-3.278-1.173-4.341,0.411c-0.623,0.926-0.86,2.729-0.408,3.715c1.619,3.523,1.752,6.317-0.103,8.67
			c-1.821,2.306-4.55,2.928-8.117,1.678c-2.046-0.718-3.602-0.015-4.065,1.926c-0.269,1.133,0.237,2.955,1.05,3.778
			c2.499,2.531,3.571,5.078,2.568,8.031c-1.052,3.096-3.444,4.314-6.449,4.372c-2.142,0.041-3.622,0.71-3.957,3.172
			c-0.326,2.4,1.351,2.846,2.879,3.733c1.416,0.822,2.977,1.871,3.768,3.251c2.258,3.94,0.196,7.717-4.752,9.982
			c-0.901,0.412-1.752,2.271-1.631,3.342c0.116,1.023,1.372,2.28,2.413,2.732c1.598,0.694,3.659,0.377,5.139,1.214
			c4.37,2.47,4.111,7.618-0.25,11.766c-0.636,0.604-1.132,2.071-0.861,2.819c0.396,1.092,1.488,2.599,2.383,2.673
			C13.766,93.159,15.61,92.451,17.165,92.148z"/>
		<path fill-rule="evenodd" clip-rule="evenodd" fill="#FFFFFF" d="M16.65,91.373c-1.56,0.275-3.416,0.95-5.19,0.771
			c-0.893-0.093-1.96-1.618-2.338-2.718c-0.257-0.751,0.264-2.209,0.91-2.801c4.431-4.069,4.776-9.212,0.447-11.761
			C9.015,74,6.948,74.282,5.363,73.559c-1.034-0.471-2.267-1.751-2.366-2.776c-0.103-1.072,0.78-2.916,1.688-3.311
			c4.985-2.176,7.11-5.915,4.919-9.896c-0.767-1.395-2.31-2.472-3.711-3.319c-1.513-0.914-3.182-1.391-2.815-3.783
			c0.375-2.457,1.868-3.099,4.01-3.102c3.006-0.003,5.417-1.179,6.521-4.255c1.053-2.934,0.024-5.5-2.43-8.076
			c-0.799-0.838-1.274-2.668-0.987-3.795c0.496-1.933,2.062-2.608,4.097-1.854c3.544,1.314,6.285,0.742,8.143-1.531
			c1.896-2.318,1.809-5.114,0.251-8.667c-0.437-0.993-0.168-2.792,0.469-3.708c1.09-1.564,2.745-1.772,4.348-0.333
			c2.735,2.457,5.715,2.961,8.241,1.478c2.552-1.498,3.45-4.36,3.102-8.072c-0.1-1.07,0.838-2.625,1.755-3.333
			c1.443-1.115,2.99-0.631,3.988,1.062c2.754,4.678,6.752,6.09,10.055,3.098c1.426-1.291,2.116-3.571,2.847-5.52
			c0.714-1.9,2.009-2.712,3.681-2.175c0.993,0.319,2.221,1.465,2.441,2.454c1.02,4.574,3.243,6.98,6.856,6.84
			c2.822-0.109,4.45-1.962,5.987-4.151c0.593-0.845,1.87-1.769,2.75-1.687c1.971,0.183,3.679,1.257,3.157,3.797
			c-1.021,4.958,1.521,9.064,5.662,8.88c1.803-0.08,3.521-1.417,5.35-1.899c1.263-0.334,2.86-0.65,3.929-0.135
			c1.771,0.853,1.97,2.553,0.899,4.414c-1.875,3.26-1.826,6.077,0.18,8.451c2.224,2.633,5.022,2.399,8.048,1.729
			c1.107-0.246,2.824,0.297,3.612,1.134c1.279,1.357,1.226,3.06-0.44,4.506c-2.939,2.55-3.9,5.352-2.76,8.146
			c1.322,3.243,4.055,4.092,7.204,4.384c0.932,0.085,2.228,0.998,2.561,1.859c0.661,1.712,0.991,3.677-1.503,4.536
			c-3.009,1.035-5.276,2.867-5.34,6.476c-0.061,3.513,2.018,5.512,4.931,6.682c1.715,0.689,2.483,1.697,2.214,3.651
			c-0.358,2.6-1.937,3.088-4.14,3.077c-2.894-0.013-5.111,1.345-6.123,4.24c-1.027,2.943,0.008,5.396,2.04,7.515
			c1.103,1.15,2.663,2.019,1.598,4.178c-1.097,2.227-2.382,2.939-4.816,1.994c-1.438-0.558-3.329-0.613-4.81-0.168
			c-4.05,1.222-5.341,5.733-3.045,10.142c0.977,1.881,1.075,3.399-0.754,4.786c-1.622,1.229-2.916,0.757-4.319-0.42
			c-2.894-2.428-5.571-2.788-8.07-1.234c-2.464,1.53-3.35,4.427-2.978,8.092c0.11,1.093-0.609,2.752-1.475,3.374
			c-1.581,1.136-3.312,0.937-4.436-1.135c-1.872-3.454-4.301-4.907-7.214-4.445c-3.001,0.475-4.804,2.657-5.676,6.886
			c-0.395,1.916-1.66,2.975-3.37,2.404c-1.142-0.381-2.602-1.59-2.839-2.679c-0.794-3.643-2.479-6.087-5.38-6.731
			c-2.72-0.605-5.17,0.791-7.185,3.528c-0.805,1.095-2.355,2.353-3.495,2.283c-2.433-0.15-3.273-1.979-2.778-4.543
			c0.619-3.206-0.165-6.01-3.116-7.669c-2.982-1.676-5.623-0.599-8.039,1.445c-1.385,1.172-2.732,1.403-4.186,0.049
			c-1.381-1.285-1.607-2.6-0.729-4.334c0.653-1.288,1.25-2.731,1.379-4.154C23.295,94.451,20.602,91.521,16.65,91.373z
			 M60.43,34.912c-14.045-0.264-25.694,11.356-25.967,25.905c-0.277,14.675,10.926,26.665,25.176,26.946
			c14.101,0.279,25.874-11.365,26.129-25.844C86.029,47.166,74.786,35.183,60.43,34.912z M28.733,42.081
			c4.278-0.333,6.746-3.083,6.477-7.216c-0.23-3.534-3.758-6.526-7.371-6.252c-3.338,0.255-5.974,3.468-5.714,6.966
			C22.399,39.273,25.508,42.332,28.733,42.081z M20.152,52.702c-3.858-0.055-6.792,2.638-6.85,6.289
			c-0.062,3.858,2.862,6.921,6.653,6.968c3.531,0.043,6.56-2.964,6.609-6.561C26.613,55.712,23.781,52.754,20.152,52.702z
			 M19.862,84.064c-0.069,3.625,2.759,6.631,6.318,6.711c3.729,0.087,6.73-2.922,6.804-6.817c0.069-3.687-2.602-6.563-6.152-6.632
			C23.156,77.257,19.932,80.373,19.862,84.064z M46.041,93.28c-3.684-0.066-6.492,2.962-6.569,7.082
			c-0.066,3.465,2.71,6.457,6.053,6.524c3.633,0.075,6.81-2.873,6.884-6.389C52.494,96.482,49.727,93.346,46.041,93.28z
			 M42.836,21.098c-0.061,3.62,3.035,6.923,6.542,6.981c3.485,0.058,6.264-2.801,6.339-6.525c0.081-3.952-2.745-7.12-6.405-7.183
			C45.861,14.314,42.898,17.389,42.836,21.098z M100.078,69.464c4.129-0.013,6.799-2.614,6.785-6.613
			c-0.013-3.587-3.108-6.738-6.579-6.697c-3.505,0.042-6.657,3.49-6.646,7.268C93.649,66.687,96.62,69.475,100.078,69.464z
			 M70.955,108.043c3.682-0.003,6.432-3.087,6.427-7.209c-0.004-3.102-3.438-6.395-6.645-6.372
			c-3.664,0.027-6.307,2.777-6.301,6.556C64.442,104.916,67.346,108.046,70.955,108.043z M73.837,29.191
			c3.734,0.072,6.625-2.984,6.707-7.094c0.069-3.479-2.713-6.437-6.124-6.507c-3.746-0.079-6.632,2.865-6.699,6.833
			C67.659,26.092,70.399,29.126,73.837,29.191z M85.043,86.766c-0.062,3.568,3.18,6.922,6.74,6.977
			c3.497,0.054,6.301-2.843,6.367-6.573c0.068-3.882-2.677-6.663-6.651-6.739C87.856,80.358,85.107,83.058,85.043,86.766z
			 M93.337,44.939c3.458,0.065,6.739-3.081,6.788-6.506c0.056-3.864-2.681-6.763-6.457-6.839c-3.546-0.072-6.537,3.154-6.611,7.134
			C86.992,42.186,89.708,44.872,93.337,44.939z"/>
		<path fill-rule="evenodd" clip-rule="evenodd" fill="none" d="M59.984,34.908c14.357,0.011,25.801,11.79,25.79,26.545
			c-0.012,14.481-11.586,26.335-25.689,26.312c-14.252-0.025-25.656-11.812-25.627-26.488
			C34.486,46.723,45.935,34.896,59.984,34.908z"/>
		<path fill-rule="evenodd" clip-rule="evenodd" fill="none" d="M28.413,42.646c-3.221,0.31-6.381-2.693-6.717-6.382
			c-0.318-3.493,2.262-6.752,5.596-7.067c3.607-0.34,7.185,2.588,7.475,6.117C35.104,39.443,32.683,42.236,28.413,42.646z"/>
		<path fill-rule="evenodd" clip-rule="evenodd" fill="none" d="M20.012,53.42c3.629-0.013,6.51,2.893,6.523,6.58
			c0.013,3.597-2.966,6.658-6.497,6.679c-3.792,0.021-6.767-2.988-6.77-6.849C13.267,56.179,16.152,53.436,20.012,53.42z"/>
		<path fill-rule="evenodd" clip-rule="evenodd" fill="none" d="M20.251,84.783c0.008-3.691,3.18-6.867,6.856-6.863
			c3.551,0.004,6.27,2.834,6.263,6.52c-0.008,3.897-2.958,6.958-6.688,6.94C23.124,91.362,20.244,88.408,20.251,84.783z"/>
		<path fill-rule="evenodd" clip-rule="evenodd" fill="none" d="M46.583,93.526c3.686,0,6.506,3.085,6.489,7.102
			c-0.016,3.515-3.142,6.521-6.775,6.512c-3.344-0.009-6.168-2.95-6.163-6.416C40.142,96.604,42.898,93.526,46.583,93.526z"/>
		<path fill-rule="evenodd" clip-rule="evenodd" fill="none" d="M42.159,21.412c0-3.709,2.908-6.837,6.361-6.842
			c3.66-0.004,6.54,3.114,6.526,7.066c-0.013,3.725-2.743,6.633-6.229,6.638C45.31,28.28,42.159,25.031,42.159,21.412z"/>
		<path fill-rule="evenodd" clip-rule="evenodd" fill="none" d="M100.208,68.739c-3.456,0.073-6.475-2.661-6.539-5.926
			c-0.076-3.777,3.019-7.282,6.521-7.386c3.47-0.104,6.617,2.991,6.691,6.578C106.963,66.003,104.338,68.652,100.208,68.739z"/>
		<path fill-rule="evenodd" clip-rule="evenodd" fill="none" d="M71.743,107.837c-3.608,0.068-6.563-3.008-6.635-6.907
			c-0.07-3.777,2.526-6.573,6.189-6.667c3.205-0.081,6.695,3.149,6.751,6.251C78.122,104.636,75.425,107.768,71.743,107.837z"/>
		<path fill-rule="evenodd" clip-rule="evenodd" fill="none" d="M73.291,28.946c-3.438-0.004-6.229-2.987-6.229-6.656
			c-0.001-3.969,2.834-6.965,6.581-6.955c3.412,0.009,6.244,2.917,6.233,6.398C79.864,25.843,77.026,28.951,73.291,28.946z"/>
		<path fill-rule="evenodd" clip-rule="evenodd" fill="none" d="M85.47,86.31c0.001-3.709,2.704-6.457,6.348-6.451
			c3.976,0.005,6.768,2.735,6.764,6.618c-0.002,3.731-2.758,6.679-6.254,6.688C88.766,93.174,85.467,89.877,85.47,86.31z"/>
		<path fill-rule="evenodd" clip-rule="evenodd" fill="none" d="M93.055,44.341c-3.631-0.002-6.391-2.64-6.385-6.099
			c0.008-3.98,2.943-7.259,6.489-7.251c3.777,0.008,6.563,2.857,6.572,6.721C99.74,41.139,96.512,44.342,93.055,44.341z"/>
	</g>
	<g>
		<path fill="#3CABF7" d="M65.133,38.194c1.035-3.049,0.609-5.228-0.725-5.998c-2.098-1.189-6.417,1.078-10.833,8.87
			c1.959,1.778,5.087,3.082,0.55,11.871c4.514-6.744,9.331-11.007,10.525-13.559C64.837,38.979,64.999,38.586,65.133,38.194z"/>
		<path fill="#143D73" stroke="#000000" stroke-width="0.5" stroke-miterlimit="10" d="M75.31,47.415
			c-0.115-6.465,0.149-30.888-12.464-31.114c-20.189,2.606-7.871,18.408-19.804,30.295c3.262-1.323,9.534-4.323,10.519-5.54
			c4.427-7.809,8.756-10.069,10.848-8.859c1.334,0.77,1.76,2.948,0.725,5.998c-0.134,0.393-0.296,0.785-0.483,1.184
			c-1.195,2.552-6.012,6.814-10.525,13.559c-0.021,0.029-0.043,0.057-0.064,0.086c-14.412,15.498-5.941,49.184,1.026,62.933
			c0.033,0.065,0.066,0.129,0.099,0.192c1.022,1.993,2.009,3.557,2.884,4.56c0.006,0.008,0.013,0.015,0.019,0.022
			c0.007,0.008,0.015,0.018,0.022,0.026c5.602,6.969,31.708,7.985,45.164-0.258C61.687,110.67,90.243,84.986,75.31,47.415z"/>
	</g>
</g>
</svg>
