<?xml version="1.0" encoding="utf-8"?>
<!-- Generator: Adobe Illustrator 16.0.0, SVG Export Plug-In . SVG Version: 6.00 Build 0)  -->
<!DOCTYPE svg PUBLIC "-//W3C//DTD SVG 1.1//EN" "http://www.w3.org/Graphics/SVG/1.1/DTD/svg11.dtd">
<svg version="1.1" id="Layer_1" xmlns="http://www.w3.org/2000/svg" xmlns:xlink="http://www.w3.org/1999/xlink" x="0px" y="0px"
	 width="350px" height="130px" viewBox="0 0 350 130" enable-background="new 0 0 350 130" xml:space="preserve">
<linearGradient id="SVGID_1_" gradientUnits="userSpaceOnUse" x1="0" y1="65" x2="350" y2="65">
	<stop  offset="0" style="stop-color:#000000"/>
	<stop  offset="0.279" style="stop-color:#020202;stop-opacity:0.721"/>
	<stop  offset="0.4167" style="stop-color:#0A0A0A;stop-opacity:0.5833"/>
	<stop  offset="0.5234" style="stop-color:#171717;stop-opacity:0.4766"/>
	<stop  offset="0.6143" style="stop-color:#2A2A2A;stop-opacity:0.3857"/>
	<stop  offset="0.695" style="stop-color:#424242;stop-opacity:0.305"/>
	<stop  offset="0.7686" style="stop-color:#606060;stop-opacity:0.2314"/>
	<stop  offset="0.8367" style="stop-color:#838383;stop-opacity:0.1633"/>
	<stop  offset="0.9006" style="stop-color:#ADADAD;stop-opacity:0.0994"/>
	<stop  offset="0.9588" style="stop-color:#DADADA;stop-opacity:0.0412"/>
	<stop  offset="1" style="stop-color:#FFFFFF;stop-opacity:0"/>
</linearGradient>
<rect fill="url(#SVGID_1_)" width="350" height="130"/>
<path fill="#FFFFFF" d="M37.677,112.889c-2.155-1.847-4.216-3.442-4.13-3.742c2.6-9.062,6.973-26.531,7.824-36.08
	c0.383-4.304,0.823-10.402,0.413-16.765c-0.589-9.159-2.469-18.862-4.834-24.54c-1.003-2.406-3.842-9.694-3.842-9.694
	s-0.951,0.315-1.673,0.413c-0.55,0.073-0.862,0.196-1.021-0.024c-0.288-0.401,0.409-0.587,3.717-5.175
	c1.822-2.527,3.912-5.37,3.912-5.37l-9.71,1.312c0,0-4.067,6.324-7.492,12.562c-1.678,3.056-3.056,6.203-4.009,8.357
	c-0.612,1.384-1.507,3.069-2.259,4.957c-1.401,3.516-2.568,7.168-2.568,7.168s-2.511,2.429-2.972,3.523
	c-0.797,1.887,0.494,4.139,0.494,4.139s-1.299,6.805-1.708,9.078C6.991,67.6,6.951,76.205,7.185,80.597
	c0.461,8.676,3.304,16.692,6.269,21.091c1.367,2.028,6.164,5.207,6.164,5.207s-1.814,2.155-3.249,4.754
	c-0.866,1.571-3.003,6.439-3.003,6.439s13.341-1.143,17.801-1.118c2.144,0.012,6.608,0.583,8.552,0.631
	c0.62,0.018,2.3-0.769,2.381-0.947C42.16,116.521,39.828,114.729,37.677,112.889z M18.07,94.01
	c-2.635-5.631-3.903-12.69-4.422-16.084c-0.772-5.059-0.292-20.652,1.143-20.434c1.031,0.157,5.248,1.871,5.248,1.871l8.504-2.917
	c0,0-5.021-1.771-6.584-2.599c-1.063-0.563-3.178-2.163-3.475-3.329c-0.261-1.026,0.981-3.073,1.628-3.912
	c1.287-1.667,6.707-5.103,6.707-5.103s-7.678,1.458-7.484,0.171c0.305-2.019,6.073-12.413,6.511-12.513
	c0.851-0.194,3.208,5.103,5.88,13.291c2.074,6.352,3.134,13.849,3.426,18.708c0.716,11.925-3.178,36.254-7.921,42.493
	C26.742,104.297,20.913,100.084,18.07,94.01z M36.73,116.289c-5.564-0.412-12.769,0.402-13.412,0.413
	c-0.486,0.009,1.262-3.936,1.967-4.154c1.713-0.53,6.488-1.094,6.488-1.094C33.207,112.402,38.474,116.418,36.73,116.289z"/>
<text transform="matrix(1.2017 0 0 1 103.5127 64.999)" fill="#FFFFFF" font-family="'BebasNeue'" font-size="25.4743">ror</text>
<text transform="matrix(1 0 0 1 79.8369 82.3135)" fill="#FFFFFF" font-family="'BebasNeue'" font-size="20.8414">Robotics</text>
<text transform="matrix(1 0 0 1 45.5117 65.4463)" fill="#FFFFFF" font-family="'BebasNeue'" font-size="44.2526">MPA</text>
</svg>
