<?xml version="1.0" encoding="utf-8"?>
<!-- Generator: Adobe Illustrator 17.1.0, SVG Export Plug-In . SVG Version: 6.00 Build 0)  -->
<!DOCTYPE svg PUBLIC "-//W3C//DTD SVG 1.1//EN" "http://www.w3.org/Graphics/SVG/1.1/DTD/svg11.dtd">
<svg version="1.1" id="Layer_1" xmlns="http://www.w3.org/2000/svg" xmlns:xlink="http://www.w3.org/1999/xlink" x="0px" y="0px"
	 viewBox="0 0 242 150" enable-background="new 0 0 242 150" xml:space="preserve">
<rect fill="#FDFDFD" width="242" height="150"/>
<g>
	<path fill="#FFFFFF" d="M47.1,102.5c4.1-0.1,7.6,0.5,11.1-0.3C54.9,69.7,97,38.1,127.1,51c-1.4-2.1-3.1-2.6-4.8-3.3
		c-7.7-3.1-15.7-3.3-23.7-1.5c-17.9,4-32,14.1-42.8,28.8C49.9,82.9,47.3,92.1,47.1,102.5z M124,105.7c-6.5-0.4-12.1-1.2-16.9,3.5
		c-3.2,3.1-7.2,5.3-11.2,7.2c-13,6.4-26.1,9.1-39.4,1c-0.9-0.6-2-1.1-3.1-0.2c5.7,6.3,12.2,10.9,20.7,12.3
		c7.9,1.3,15.4-0.3,22.7-3.4C107.3,121.5,116,114.7,124,105.7z M81.8,102.4c1-4.3,2.1-8.7,3.1-12.9c3.7-1,5.6,0.2,6.8,3.2
		c0.7,1.9,2.2,3.4,2.8,5.3c1.6,4.7,4.8,5.2,9.2,4c-2.7-4.6-5.3-9-8-13.5c1.5-0.6,2.4-0.9,3.3-1.3c4.2-2,6.6-5.9,6.1-10
		c-0.6-4.6-4.1-5.7-8-6.5c-4.3-1-8.6-0.5-12.9-0.1c-1.4,0.1-2.1,0.5-2.4,1.9c-2.1,9.9-4.3,19.8-6.5,29.9
		C77.8,102.4,79.6,102.4,81.8,102.4z M139.5,79.6c4.2,0,8.1-0.1,11.9,0c2.8,0.1,3.9-0.9,3.5-3.5c-6.8,0-13.4,0-20,0
		c-1.9,8.9-3.8,17.5-5.7,26.2c6.9,0,13.3,0,20,0c0.2-1.2,0.4-2.3,0.7-3.8c-4.9,0-9.6,0-14.5,0c0.7-3.1,1.3-5.7,1.8-8
		c3.7-2.1,9.3,2,11.9-4.6c-4.1,0-7.4,0-10.9,0C138.7,83.8,139,82,139.5,79.6z M114.5,90.6c3.5-2.3,9.2,2.2,11.6-4.1
		c-3.9-0.9-7.3,0.4-10.4-0.9c0-2.2,0.5-4.1,1.5-6c4,0,7.9-0.1,11.8,0c2.7,0.1,3.7-1,3-3.7c-6.5,0-13,0-19.7,0
		c-1.9,8.8-3.8,17.5-5.8,26.6c6.2,0,11.8-0.1,17.4,0c2.9,0.1,3.4-1.2,2.9-4c-4.6,0-9.1,0-13.7,0C113.1,95.4,113.7,92.8,114.5,90.6z
		 M194.2,102.4c0.2-1.1,1.2-2.1,0.4-3.8c-4.5,0-9,0-14,0c1.6-7.7,3.2-15.1,4.8-22.5c-1.8-0.4-3.3-0.5-5.2,0.1
		c-1.9,8.6-3.8,17.3-5.7,26.2C181.3,102.4,187.6,102.4,194.2,102.4z M158.4,98.6c1.7-7.8,3.2-15.1,4.8-22.5
		c-1.8-0.6-3.4-0.6-5.2,0.1c-1.9,8.7-3.7,17.3-5.7,26.2c6.1,0,11.7-0.1,17.3,0c3,0.1,3.2-1.4,3-3.9
		C167.9,98.6,163.4,98.6,158.4,98.6z"/>
	<path fill-rule="evenodd" clip-rule="evenodd" fill="#217CC1" d="M47.1,102.5c0.2-10.4,2.8-19.6,8.6-27.6
		c10.8-14.6,24.8-24.7,42.8-28.8c8-1.8,16-1.6,23.7,1.5c1.6,0.7,3.4,1.2,4.8,3.3c-30.1-13-72.2,18.6-68.8,51.2
		C54.8,103,51.2,102.4,47.1,102.5z"/>
	<path fill-rule="evenodd" clip-rule="evenodd" fill="#217CC1" d="M124,105.7c-8,9-16.7,15.8-27.1,20.4c-7.2,3.2-14.8,4.7-22.7,3.4
		c-8.5-1.4-15.1-6-20.7-12.3c1.2-0.9,2.2-0.4,3.1,0.2c13.4,8.1,26.5,5.4,39.4-1c4-2,8-4.1,11.2-7.2
		C111.9,104.4,117.5,105.3,124,105.7z"/>
	<path fill-rule="evenodd" clip-rule="evenodd" fill="#11111F" d="M81.8,102.4c-2.2,0-4,0-6.3,0c2.2-10.1,4.3-20,6.5-29.9
		c0.3-1.3,1-1.7,2.4-1.9c4.3-0.4,8.6-0.8,12.9,0.1c3.8,0.9,7.4,1.9,8,6.5c0.5,4.1-2,8-6.1,10c-0.9,0.4-1.9,0.7-3.3,1.3
		c2.7,4.6,5.3,8.9,8,13.5c-4.4,1.2-7.6,0.7-9.2-4c-0.6-1.9-2.1-3.5-2.8-5.3c-1.2-3-3.2-4.3-6.8-3.2C83.9,93.6,82.8,98,81.8,102.4z
		 M86.3,84c3.8,0.6,7.3,0.4,9.4-0.6c2-0.9,3.4-2.3,3.1-4.6c-0.3-2.1-1.8-3-3.8-3.4c-5.8-1.2-6.8-0.6-8,5.3
		C86.7,81.8,86.5,82.9,86.3,84z"/>
	<path fill-rule="evenodd" clip-rule="evenodd" fill="#11111F" d="M139.5,79.6c-0.4,2.4-0.8,4.2-1.2,6.4c3.5,0,6.8,0,10.9,0
		c-2.6,6.6-8.2,2.4-11.9,4.6c-0.5,2.3-1.1,4.9-1.8,8c4.9,0,9.6,0,14.5,0c-0.3,1.5-0.5,2.6-0.7,3.8c-6.6,0-13.1,0-20,0
		c1.9-8.7,3.8-17.4,5.7-26.2c6.6,0,13.2,0,20,0c0.4,2.6-0.7,3.7-3.5,3.5C147.5,79.5,143.7,79.6,139.5,79.6z"/>
	<path fill-rule="evenodd" clip-rule="evenodd" fill="#11111F" d="M114.5,90.6c-0.8,2.2-1.4,4.8-1.6,7.9c4.6,0,9.1,0,13.7,0
		c0.5,2.8,0,4.1-2.9,4c-5.6-0.1-11.2,0-17.4,0c2-9,3.9-17.8,5.8-26.6c6.8,0,13.2,0,19.7,0c0.7,2.7-0.2,3.8-3,3.7
		c-3.9-0.1-7.8,0-11.8,0c-0.9,1.9-1.5,3.8-1.5,6c3.2,1.3,6.5,0,10.4,0.9C123.7,92.8,118,88.3,114.5,90.6z"/>
	<path fill-rule="evenodd" clip-rule="evenodd" fill="#11111F" d="M194.2,102.4c-6.6,0-12.9,0-19.7,0c1.9-8.9,3.8-17.6,5.7-26.2
		c1.9-0.5,3.4-0.5,5.2-0.1c-1.6,7.4-3.1,14.8-4.8,22.5c5,0,9.5,0,14,0C195.3,100.3,194.4,101.3,194.2,102.4z"/>
	<path fill-rule="evenodd" clip-rule="evenodd" fill="#11111F" d="M158.4,98.6c5.1,0,9.5,0,14.2,0c0.3,2.5,0,4-3,3.9
		c-5.6-0.2-11.2,0-17.3,0c1.9-8.9,3.8-17.6,5.7-26.2c1.8-0.7,3.4-0.6,5.2-0.1C161.6,83.5,160,90.8,158.4,98.6z"/>
	<path fill-rule="evenodd" clip-rule="evenodd" fill="#FFFFFF" d="M86.3,84c0.2-1.1,0.4-2.2,0.6-3.3c1.2-5.9,2.2-6.6,8-5.3
		c2,0.4,3.6,1.3,3.8,3.4c0.3,2.3-1.1,3.7-3.1,4.6C93.7,84.4,90.2,84.7,86.3,84z"/>
</g>
</svg>
