<?xml version="1.0" encoding="utf-8"?>
<!-- Generator: Adobe Illustrator 15.1.0, SVG Export Plug-In . SVG Version: 6.00 Build 0)  -->
<!DOCTYPE svg PUBLIC "-//W3C//DTD SVG 1.1//EN" "http://www.w3.org/Graphics/SVG/1.1/DTD/svg11.dtd">
<svg version="1.1" id="Layer_1" xmlns="http://www.w3.org/2000/svg" xmlns:xlink="http://www.w3.org/1999/xlink" x="0px" y="0px"
	 width="900px" height="330px" viewBox="0 0 900 330" enable-background="new 0 0 900 330" xml:space="preserve">
<g>
	<path fill="#EC1E27" d="M152.883,121.53c-8.531,0-13.862,8.744-13.862,8.744s-7.464-9.811-22.606-9.811
		c-15.142,0-42.794,12.23-42.794,45.781c0,0,0.141,44.43,41.728,44.43c18.127,0,23.886-9.598,23.886-9.598s2.985,9.598,13.862,9.598
		c10.876,0,13.436-11.09,13.436-11.09v-69.523C166.531,130.061,161.413,121.53,152.883,121.53z M119.679,187.572
		c-20.894,0-18.192-20.475-18.192-20.475s-1.138-22.179,17.63-22.179c18.767,0,18.767,18.98,18.767,18.98
		S141.284,187.572,119.679,187.572z"/>
	<path fill="#EC1E27" d="M242.666,181.527c-9.525,8.814-23.886,7.82-23.886,7.82c-19.193,0-20.473-14.715-20.473-14.715h53.315
		c0,0,7.891-0.641,7.891-10.733c0-10.093-3.839-43.436-44.999-43.436c-46.278,0-46.278,43.436-46.278,43.436
		c0,32.56,26.658,47.13,48.127,47.13s41.514-9.383,41.514-18.908C257.878,182.594,245.651,178.471,242.666,181.527z
		 M216.302,141.576c16.208,0,18.127,14.929,18.127,14.929h-36.255C198.174,156.505,200.094,141.576,216.302,141.576z"/>
	<path fill="#EC1E27" d="M312.19,123.556c0-1.03,0.054-2.048,0.143-3.056c-1.399-0.273-13.055-2.125-23.46,9.348
		c0,0-1.707-8.105-13.151-8.105c-11.445,0-13.294,8.531-13.294,8.531v71.513c0,0,0.426,9.242,13.294,9.242
		c0,0,13.151,1.422,13.151-9.242s0-45.282,0-45.282s3.298-7.315,28.094-15.509C313.937,135.888,312.19,129.927,312.19,123.556z"/>
	<path fill="#EC1E27" d="M449.499,121.596c-8.534,0-13.865,8.744-13.865,8.744s-7.464-9.81-22.604-9.81
		c-15.142,0-42.795,12.229-42.795,45.781c0,0,0.142,44.428,41.729,44.428c18.125,0,23.884-9.596,23.884-9.596
		s2.986,9.596,13.863,9.596c10.877,0,13.436-11.088,13.436-11.088v-69.523C463.146,130.127,458.029,121.596,449.499,121.596z
		 M416.292,187.637c-20.893,0-18.192-20.473-18.192-20.473s-1.137-22.179,17.631-22.179c18.767,0,18.767,18.979,18.767,18.979
		S437.898,187.637,416.292,187.637z"/>
	<path fill="#EC1E27" d="M411.998,22.505c-83.885,0-91.52,78.725-91.52,78.725c0.023-0.024,0.045-0.045,0.068-0.069
		c3.5-4.039,7.925-7.25,12.951-9.302c3.21-1.371,6.362-2.097,9.388-2.351c1.162-0.119,2.341-0.181,3.534-0.181
		c9.192,0,17.532,3.631,23.682,9.528c0.057,0.048,0.087,0.076,0.087,0.076c0-1.807,17.499-58.334,51.62-58.334
		s42.865,45.851,42.865,45.851c11.838-15.674,31.777-8.21,31.777-8.21C496.449,68.854,476.969,22.931,411.998,22.505z"/>
	<path fill="#EC1E27" d="M473.203,92.527c0,0,2.773-8.531,13.648-8.531c10.877,0,12.477,8.531,12.477,8.531v98.954l-26.125,3.518
		V92.527z"/>
	<path fill="#203C72" d="M115.704,219.561c-33.269,0-40.592,6.895-40.592,6.895v19.619c0,0,18.34-6.467,32.062-6.467
		c13.72,0,14.43,3.34,14.43,3.34l-0.072,4.764c-24.454,0-56.194,11.09-56.194,29.465s9.419,28.188,28.187,28.188
		c18.767,0,28.293-6.043,28.293-6.043v6.043h35.969c0,0,0-53.104,0-65.258C157.787,227.947,148.973,219.561,115.704,219.561z
		 M121.249,280.555c0,0-3.27,3.695-11.089,3.695c-7.82,0-10.238-3.838-10.238-9.098c0-5.262,8.673-10.807,21.327-10.807V280.555z"/>
	<path fill="#203C72" d="M162.906,301.098c0,0,23.886,6.398,33.553,6.398c13.056,0,46.065-3.057,46.065-30.924
		s-42.084-22.748-42.084-34.406s35.828,0,35.828,0v-19.621c0,0-15.069-4.832-25.875-4.832c-10.805,0-47.486-0.855-47.486,30.709
		c0,31.563,41.231,19.902,41.231,33.836c0,6.258-12.512,5.119-12.512,5.119s-20.332-0.709-28.719-9.525V301.098z"/>
	<path fill="#203C72" d="M372.615,301.098c0,0,23.886,6.398,33.553,6.398c13.057,0,46.064-3.057,46.064-30.924
		s-42.083-22.748-42.083-34.406s35.828,0,35.828,0v-19.621c0,0-15.069-4.832-25.875-4.832c-10.805,0-47.487-0.855-47.487,30.709
		c0,31.563,41.232,19.902,41.232,33.836c0,6.258-12.512,5.119-12.512,5.119s-20.332-0.709-28.72-9.525V301.098z"/>
	<path fill="#005E8E" d="M347.876,249.063"/>
	<path fill="#203C72" d="M519.055,284.25v17.273c0,0-2.559,5.973-22.391,5.973c-19.836,0-33.518-10.236-33.518-18.129
		c0-7.891,0-48.197,0-48.197h-11.91v-19.832h13.436v-25.307l34.656-4.551l0.107,29.785h18.18v19.799h-18.254v38.012
		c0,0-0.033,6.773,9.51,6.773S519.055,284.25,519.055,284.25z"/>
	<path fill="#EC1E27" d="M346.099,179.609c6.92,0,13.351,2.092,18.697,5.676v-32.859c-5.31,3.387-11.612,5.357-18.377,5.357
		c-7.889,0-15.147-2.675-20.936-7.158v36.052C331.177,182.252,338.327,179.609,346.099,179.609z"/>
	<path fill="#203C72" d="M346.099,246.857c-7.043,0-13.579-2.17-18.98-5.873c0,13.205,0,64.592,0,64.592h41.516v-67.393
		l-0.005,0.006C362.666,243.576,354.766,246.857,346.099,246.857z"/>
	<path fill="#203C72" d="M281.764,242.166c0-11.658,35.829,0,35.829,0v-11.105c-1.856-2.963-3.265-6.232-4.128-9.719
		c-5.235-1.432-14.458-3.629-21.747-3.629c-10.806,0-47.487-0.855-47.487,30.709c0,31.563,41.231,19.902,41.231,33.836
		c0,6.258-12.512,5.119-12.512,5.119s-20.333-0.709-28.72-9.525v23.246c0,0,23.886,6.398,33.553,6.398
		c13.057,0,46.066-3.057,46.066-30.924S281.764,253.824,281.764,242.166z"/>
	<path fill="#203C72" d="M463.146,113.639c0,0,2.379-56.514-41.34-56.514s-44.785,47.558-44.785,56.514
		c0,0,10.653-38.601,43.074-38.601C452.518,75.038,463.146,113.639,463.146,113.639z"/>
	<radialGradient id="SVGID_1_" cx="355.5527" cy="202.8896" r="37.3511" gradientUnits="userSpaceOnUse">
		<stop  offset="0.0552" style="stop-color:#FFFFFF"/>
		<stop  offset="0.7607" style="stop-color:#203C72"/>
		<stop  offset="0.9939" style="stop-color:#203C72"/>
	</radialGradient>
	<circle fill="url(#SVGID_1_)" cx="347.769" cy="213.232" r="23.636"/>
	<radialGradient id="SVGID_2_" cx="354.2021" cy="113.2124" r="37.352" gradientUnits="userSpaceOnUse">
		<stop  offset="0.0552" style="stop-color:#FFFFFF"/>
		<stop  offset="0.7607" style="stop-color:#EC1E27"/>
		<stop  offset="0.9939" style="stop-color:#203C72"/>
	</radialGradient>
	<circle fill="url(#SVGID_2_)" cx="346.418" cy="123.556" r="23.637"/>
	<g>
		<path fill="#203C72" d="M523.493,302.012c0.697,0.446,1.697,0.786,2.77,0.786c1.591,0,2.52-0.84,2.52-2.056
			c0-1.107-0.644-1.769-2.27-2.376c-1.965-0.715-3.18-1.751-3.18-3.431c0-1.876,1.554-3.27,3.895-3.27
			c1.216,0,2.127,0.285,2.645,0.589l-0.429,1.27c-0.375-0.232-1.179-0.572-2.27-0.572c-1.644,0-2.269,0.982-2.269,1.805
			c0,1.126,0.732,1.68,2.395,2.323c2.036,0.786,3.055,1.769,3.055,3.537c0,1.858-1.357,3.484-4.198,3.484
			c-1.162,0-2.431-0.357-3.074-0.786L523.493,302.012z"/>
		<path fill="#203C72" d="M542.645,298.616c-0.089-1.68-0.196-3.717-0.196-5.199h-0.036c-0.429,1.394-0.911,2.912-1.519,4.574
			l-2.126,5.843h-1.18l-1.965-5.735c-0.572-1.716-1.037-3.253-1.376-4.682h-0.036c-0.036,1.501-0.125,3.502-0.232,5.324
			l-0.321,5.164h-1.483l0.84-12.043h1.983l2.055,5.825c0.501,1.482,0.894,2.805,1.215,4.056h0.036
			c0.321-1.215,0.751-2.537,1.286-4.056l2.145-5.825h1.983l0.75,12.043h-1.536L542.645,298.616z"/>
	</g>
</g>
</svg>
